<?xml version="1.0" encoding="UTF-8" standalone="no"?>
<!-- Created with Inkscape (http://www.inkscape.org/) -->

<svg
   xmlns:dc="http://purl.org/dc/elements/1.1/"
   xmlns:cc="http://creativecommons.org/ns#"
   xmlns:rdf="http://www.w3.org/1999/02/22-rdf-syntax-ns#"
   xmlns:svg="http://www.w3.org/2000/svg"
   xmlns="http://www.w3.org/2000/svg"
   xmlns:sodipodi="http://sodipodi.sourceforge.net/DTD/sodipodi-0.dtd"
   xmlns:inkscape="http://www.inkscape.org/namespaces/inkscape"
   width="777px"
   height="100px"
   viewBox="0 0 777 100"
   version="1.1"
   id="SVGRoot"
   inkscape:version="0.92.1 r15371"
   sodipodi:docname="textosvg.svg">
  <sodipodi:namedview
     id="base"
     pagecolor="#ffffff"
     bordercolor="#666666"
     borderopacity="1.0"
     inkscape:pageopacity="0.0"
     inkscape:pageshadow="2"
     inkscape:zoom="1.3178893"
     inkscape:cx="394.02971"
     inkscape:cy="50"
     inkscape:document-units="px"
     inkscape:current-layer="layer1"
     showgrid="false"
     inkscape:window-width="1366"
     inkscape:window-height="707"
     inkscape:window-x="0"
     inkscape:window-y="27"
     inkscape:window-maximized="1" />
  <defs
     id="defs1199" />
  <metadata
     id="metadata1202">
    <rdf:RDF>
      <cc:Work
         rdf:about="">
        <dc:format>image/svg+xml</dc:format>
        <dc:type
           rdf:resource="http://purl.org/dc/dcmitype/StillImage" />
        <dc:title></dc:title>
      </cc:Work>
    </rdf:RDF>
  </metadata>
  <g
     id="layer1"
     inkscape:groupmode="layer"
     inkscape:label="Camada 1">
    <g
       transform="matrix(3.7795276,0,0,3.7795276,-10.778378,-154.00201)"
       id="g1082">
      <path
         d="m 18.386525,66.155555 h -3.4544 q 0,-2.159 -1.5494,-3.683 -1.524,-1.524 -3.7084002,-1.5494 -0.1016,0 -0.3302,0 -0.2286,0.0254 -0.3302,0.0254 v -3.4544 q 1.4986002,0 2.5908002,-1.0668 1.0922,-1.0922 1.0922,-2.5908 0,-1.5494 -1.0922,-2.6162 -1.0668,-1.0922 -2.5908002,-1.0922 H 6.3469249 v 16.0274 h -3.4544 v -19.4818 h 6.1213999 q 2.9464002,0 5.0292002,2.1082 2.1082,2.0828 2.1082,5.0546 0,2.8194 -2.0066,4.9022 1.9558,1.1684 3.0988,3.1242 1.143,1.9558 1.143,4.2926 z"
         style="font-style:normal;font-variant:normal;font-weight:normal;font-stretch:normal;font-size:96px;line-height:1.25;font-family:LakeWobegonNF;-inkscape-font-specification:LakeWobegonNF;letter-spacing:0px;word-spacing:0px;fill:#197cd9;fill-opacity:1;stroke:none;stroke-width:0.26458332"
         id="path903"
         inkscape:connector-curvature="0" />
      <path
         d="m 37.870308,56.427355 q 0,4.191 -2.9718,7.1882 -2.9464,2.9718 -7.1374,2.9718 -4.191,0 -7.1628,-2.9718 -2.971799,-2.9972 -2.971799,-7.1882 0,-4.191 2.971799,-7.1628 2.9718,-2.9718 7.1628,-2.9718 4.191,0 7.1374,2.9718 2.9718,2.9718 2.9718,7.1628 z m -3.429,0 q 0,-2.7686 -1.9558,-4.7244 -1.9558,-1.9558 -4.7244,-1.9558 -2.7686,0 -4.7498,1.9558 -1.9558,1.9558 -1.9558,4.7244 0,2.7686 1.9558,4.7498 1.9812,1.9558 4.7498,1.9558 2.7686,0 4.7244,-1.9558 1.9558,-1.9812 1.9558,-4.7498 z"
         style="font-style:normal;font-variant:normal;font-weight:normal;font-stretch:normal;font-size:96px;line-height:1.25;font-family:LakeWobegonNF;-inkscape-font-specification:LakeWobegonNF;letter-spacing:0px;word-spacing:0px;fill:#197cd9;fill-opacity:1;stroke:none;stroke-width:0.26458332"
         id="path905"
         inkscape:connector-curvature="0" />
      <path
         d="m 52.957511,61.075555 q 0,2.0828 -1.4986,3.5814 -1.4732,1.4986 -3.5814,1.4986 h -9.0678 v -19.4818 h 6.096 q 2.9464,0 5.0292,2.1082 2.1082,2.0828 2.1082,5.0546 0,1.778 -0.8382,3.3782 1.7526,1.4986 1.7526,3.8608 z m -3.4544,0 q 0,-0.8128 -0.635,-1.3208 -1.778,1.1938 -3.9624,1.1938 v -3.4544 q 1.524,0 2.5908,-1.0668 1.0922,-1.0668 1.0922,-2.5908 0,-1.5494 -1.0922,-2.6162 -1.0668,-1.0922 -2.5908,-1.0922 h -2.6416 v 12.573 h 5.6134 q 0.6604,0 1.143,-0.4826 0.4826,-0.4826 0.4826,-1.143 z"
         style="font-style:normal;font-variant:normal;font-weight:normal;font-stretch:normal;font-size:96px;line-height:1.25;font-family:LakeWobegonNF;-inkscape-font-specification:LakeWobegonNF;letter-spacing:0px;word-spacing:0px;fill:#197cd9;fill-opacity:1;stroke:none;stroke-width:0.26458332"
         id="path907"
         inkscape:connector-curvature="0" />
      <path
         d="m 74.13476,56.427355 q 0,4.191 -2.9718,7.1882 -2.946399,2.9718 -7.137399,2.9718 -4.191,0 -7.1628,-2.9718 -2.9718,-2.9972 -2.9718,-7.1882 0,-4.191 2.9718,-7.1628 2.9718,-2.9718 7.1628,-2.9718 4.191,0 7.137399,2.9718 2.9718,2.9718 2.9718,7.1628 z m -3.429,0 q 0,-2.7686 -1.955799,-4.7244 -1.9558,-1.9558 -4.7244,-1.9558 -2.7686,0 -4.7498,1.9558 -1.9558,1.9558 -1.9558,4.7244 0,2.7686 1.9558,4.7498 1.9812,1.9558 4.7498,1.9558 2.7686,0 4.7244,-1.9558 1.955799,-1.9812 1.955799,-4.7498 z"
         style="font-style:normal;font-variant:normal;font-weight:normal;font-stretch:normal;font-size:96px;line-height:1.25;font-family:LakeWobegonNF;-inkscape-font-specification:LakeWobegonNF;letter-spacing:0px;word-spacing:0px;fill:#197cd9;fill-opacity:1;stroke:none;stroke-width:0.26458332"
         id="path909"
         inkscape:connector-curvature="0" />
      <path
         d="m 83.760963,60.542155 q 0,2.3114 -1.651,3.9624 -1.6256,1.651 -3.962399,1.651 h -2.8956 v -3.4544 h 2.8956 q 0.889,0 1.524,-0.635 0.6604,-0.635 0.6604,-1.524 0,-0.762 -0.508,-1.4224 -0.3556,-0.4572 -1.4732,-1.3462 -1.524,-1.2192 -2.159,-2.0828 -1.1176,-1.4986 -1.1176,-3.3528 0,-2.3368 1.651,-3.9878 1.651,-1.6764 3.987799,-1.6764 h 2.8956 v 3.4544 h -2.8956 q -0.914399,0 -1.574799,0.6604 -0.635,0.635 -0.635,1.5494 0,0.762 0.508,1.397 0.3556,0.4572 1.473199,1.3462 1.524,1.2192 2.159,2.0828 1.1176,1.4986 1.1176,3.3782 z"
         style="font-style:normal;font-variant:normal;font-weight:normal;font-stretch:normal;font-size:96px;line-height:1.25;font-family:LakeWobegonNF;-inkscape-font-specification:LakeWobegonNF;letter-spacing:0px;word-spacing:0px;fill:#197cd9;fill-opacity:1;stroke:none;stroke-width:0.26458332"
         id="path911"
         inkscape:connector-curvature="0" />
      <path
         d="m 104.26829,63.996555 -1.8288,2.921 q -1.1938,-0.762 -1.905,-2.0066 -0.685802,-1.27 -0.685802,-2.667 v -9.1694 q 0,-1.2446 -0.8636,-2.0828 -0.8636,-0.8636 -2.0828,-0.8636 -1.1938,0 -2.0574,0.889 -0.8636,0.8636 -0.8636,2.0574 v 13.081 h -3.429 v -19.4818 h 3.429 v 0.7112 q 1.4732,-0.7112 2.921,-0.7112 2.6416,0 4.495802,1.8796 1.8796,1.8796 1.8796,4.5212 v 9.1694 q 0,1.143 0.9906,1.7526 z"
         style="font-style:normal;font-variant:normal;font-weight:normal;font-stretch:normal;font-size:96px;line-height:1.25;font-family:LakeWobegonNF;-inkscape-font-specification:LakeWobegonNF;letter-spacing:0px;word-spacing:0px;fill:#197cd9;fill-opacity:1;stroke:none;stroke-width:0.26458332"
         id="path913"
         inkscape:connector-curvature="0" />
      <path
         d="m 121.26525,63.996555 -1.8034,2.921 q -1.1938,-0.762 -1.905,-2.0066 -0.7112,-1.27 -0.7112,-2.667 v -0.7874 h -5.842 v 0.7874 q 0,1.397 -0.7112,2.667 -0.7112,1.2446 -1.905,2.0066 l -1.8034,-2.921 q 0.9652,-0.6096 0.9652,-1.7526 v -0.7874 h -2.3622 v -3.4544 h 2.3622 v -4.9276 q 0,-2.6416 1.8796,-4.5212 1.8796,-1.8796 4.5212,-1.8796 2.6162,0 4.4704,1.8796 1.8796,1.8796 1.8796,4.5212 v 9.1694 q 0,1.1176 0.9652,1.7526 z m -4.4196,-5.9944 v -4.9276 q 0,-1.2446 -0.8636,-2.0828 -0.8382,-0.8636 -2.032,-0.8636 -1.2192,0 -2.0828,0.8636 -0.8636,0.8382 -0.8636,2.0828 v 4.9276 z"
         style="font-style:normal;font-variant:normal;font-weight:normal;font-stretch:normal;font-size:96px;line-height:1.25;font-family:LakeWobegonNF;-inkscape-font-specification:LakeWobegonNF;letter-spacing:0px;word-spacing:0px;fill:#ff6600;fill-opacity:1;stroke:none;stroke-width:0.26458332"
         id="path915"
         inkscape:connector-curvature="0" />
      <path
         d="m 139.61398,66.155555 h -9.8298 v -5.207 h -1.7272 v -3.4544 h 1.7272 v -10.8204 h 9.8298 v 3.4544 h -6.3754 v 7.366 h 6.3754 v 3.4544 h -6.3754 v 1.7526 h 6.3754 z"
         style="font-style:normal;font-variant:normal;font-weight:normal;font-stretch:normal;font-size:96px;line-height:1.25;font-family:LakeWobegonNF;-inkscape-font-specification:LakeWobegonNF;letter-spacing:0px;word-spacing:0px;fill:#ff6600;fill-opacity:1;stroke:none;stroke-width:0.26458332"
         id="path917"
         inkscape:connector-curvature="0" />
      <path
         d="m 149.19573,60.542155 q 0,2.3114 -1.651,3.9624 -1.6256,1.651 -3.9624,1.651 h -2.8956 v -3.4544 h 2.8956 q 0.889,0 1.524,-0.635 0.6604,-0.635 0.6604,-1.524 0,-0.762 -0.508,-1.4224 -0.3556,-0.4572 -1.4732,-1.3462 -1.524,-1.2192 -2.159,-2.0828 -1.1176,-1.4986 -1.1176,-3.3528 0,-2.3368 1.651,-3.9878 1.651,-1.6764 3.9878,-1.6764 h 2.8956 v 3.4544 h -2.8956 q -0.9144,0 -1.5748,0.6604 -0.635,0.635 -0.635,1.5494 0,0.762 0.508,1.397 0.3556,0.4572 1.4732,1.3462 1.524,1.2192 2.159,2.0828 1.1176,1.4986 1.1176,3.3782 z"
         style="font-style:normal;font-variant:normal;font-weight:normal;font-stretch:normal;font-size:96px;line-height:1.25;font-family:LakeWobegonNF;-inkscape-font-specification:LakeWobegonNF;letter-spacing:0px;word-spacing:0px;fill:#ff6600;fill-opacity:1;stroke:none;stroke-width:0.26458332"
         id="path919"
         inkscape:connector-curvature="0" />
      <path
         d="m 161.00435,66.155555 h -1.143 q -4.0132,0 -6.8834,-2.8448 -2.8448,-2.8702 -2.8448,-6.8834 0,-4.0132 2.8448,-6.8834 2.8702,-2.8702 6.8834,-2.8702 h 1.143 v 3.4544 h -1.143 q -2.5908,0 -4.445,1.8542 -1.8288,1.8542 -1.8288,4.445 0,2.5908 1.8288,4.445 1.8542,1.8288 4.445,1.8288 h 1.143 z"
         style="font-style:normal;font-variant:normal;font-weight:normal;font-stretch:normal;font-size:96px;line-height:1.25;font-family:LakeWobegonNF;-inkscape-font-specification:LakeWobegonNF;letter-spacing:0px;word-spacing:0px;fill:#ff6600;fill-opacity:1;stroke:none;stroke-width:0.26458332"
         id="path921"
         inkscape:connector-curvature="0" />
      <path
         d="m 180.49726,56.427355 q 0,4.191 -2.9718,7.1882 -2.9464,2.9718 -7.1374,2.9718 -4.191,0 -7.1628,-2.9718 -2.9718,-2.9972 -2.9718,-7.1882 0,-4.191 2.9718,-7.1628 2.9718,-2.9718 7.1628,-2.9718 4.191,0 7.1374,2.9718 2.9718,2.9718 2.9718,7.1628 z m -3.429,0 q 0,-2.7686 -1.9558,-4.7244 -1.9558,-1.9558 -4.7244,-1.9558 -2.7686,0 -4.7498,1.9558 -1.9558,1.9558 -1.9558,4.7244 0,2.7686 1.9558,4.7498 1.9812,1.9558 4.7498,1.9558 2.7686,0 4.7244,-1.9558 1.9558,-1.9812 1.9558,-4.7498 z"
         style="font-style:normal;font-variant:normal;font-weight:normal;font-stretch:normal;font-size:96px;line-height:1.25;font-family:LakeWobegonNF;-inkscape-font-specification:LakeWobegonNF;letter-spacing:0px;word-spacing:0px;fill:#ff6600;fill-opacity:1;stroke:none;stroke-width:0.26458332"
         id="path923"
         inkscape:connector-curvature="0" />
      <path
         d="m 191.29186,66.155555 h -9.8552 v -19.4818 h 3.4544 v 16.0274 h 6.4008 z"
         style="font-style:normal;font-variant:normal;font-weight:normal;font-stretch:normal;font-size:96px;line-height:1.25;font-family:LakeWobegonNF;-inkscape-font-specification:LakeWobegonNF;letter-spacing:0px;word-spacing:0px;fill:#ff6600;fill-opacity:1;stroke:none;stroke-width:0.26458332"
         id="path925"
         inkscape:connector-curvature="0" />
      <path
         d="m 208.2801,63.996555 -1.8034,2.921 q -1.1938,-0.762 -1.905,-2.0066 -0.7112,-1.27 -0.7112,-2.667 v -0.7874 h -5.842 v 0.7874 q 0,1.397 -0.7112,2.667 -0.7112,1.2446 -1.905,2.0066 l -1.8034,-2.921 q 0.9652,-0.6096 0.9652,-1.7526 v -0.7874 h -2.3622 v -3.4544 h 2.3622 v -4.9276 q 0,-2.6416 1.8796,-4.5212 1.8796,-1.8796 4.5212,-1.8796 2.6162,0 4.4704,1.8796 1.8796,1.8796 1.8796,4.5212 v 9.1694 q 0,1.1176 0.9652,1.7526 z m -4.4196,-5.9944 v -4.9276 q 0,-1.2446 -0.8636,-2.0828 -0.8382,-0.8636 -2.032,-0.8636 -1.2192,0 -2.0828,0.8636 -0.8636,0.8382 -0.8636,2.0828 v 4.9276 z"
         style="font-style:normal;font-variant:normal;font-weight:normal;font-stretch:normal;font-size:96px;line-height:1.25;font-family:LakeWobegonNF;-inkscape-font-specification:LakeWobegonNF;letter-spacing:0px;word-spacing:0px;fill:#ff6600;fill-opacity:1;stroke:none;stroke-width:0.26458332"
         id="path927"
         inkscape:connector-curvature="0" />
      <path
         inkscape:connector-curvature="0"
         d="m 63.745299,40.991133 -5.232239,2.895431 1.117244,2.006595 4.114995,-2.285648 4.114994,2.285648 1.117244,-2.006595 z m 3.064929,5.359879 c -0.005,0.0062 -0.009,0.01103 -0.01395,0.01704 h 0.02222 c 7.41e-4,-0.0036 0.0013,-0.0062 0.0021,-0.0098 -0.0047,-0.0016 -0.0079,-0.0041 -0.01033,-0.0072 z m 0.766878,0.241845 c -0.01011,0.01169 -0.02366,0.02788 -0.03462,0.04082 0.01722,-1.29e-4 0.03444,1.17e-4 0.05168,0 -0.0059,-0.01355 -0.01121,-0.02728 -0.01705,-0.04082 z"
         style="font-style:normal;font-variant:normal;font-weight:normal;font-stretch:normal;font-size:96px;line-height:1.25;font-family:LakeWobegonNF;-inkscape-font-specification:LakeWobegonNF;letter-spacing:0px;word-spacing:0px;fill:#ff6600;fill-opacity:1;stroke:none;stroke-width:0.26458332"
         id="path929" />
    </g>
  </g>
</svg>
