<?xml version="1.0" encoding="UTF-8" standalone="no"?>
<!-- Created with Inkscape (http://www.inkscape.org/) -->

<svg
   xmlns:dc="http://purl.org/dc/elements/1.1/"
   xmlns:cc="http://creativecommons.org/ns#"
   xmlns:rdf="http://www.w3.org/1999/02/22-rdf-syntax-ns#"
   xmlns:svg="http://www.w3.org/2000/svg"
   xmlns="http://www.w3.org/2000/svg"
   xmlns:sodipodi="http://sodipodi.sourceforge.net/DTD/sodipodi-0.dtd"
   xmlns:inkscape="http://www.inkscape.org/namespaces/inkscape"
   width="600px"
   height="97px"
   viewBox="0 0 600 97"
   version="1.1"
   id="SVGRoot"
   inkscape:version="0.92.1 r15371"
   sodipodi:docname="bottom.svg">
  <sodipodi:namedview
     id="base"
     pagecolor="#ffffff"
     bordercolor="#666666"
     borderopacity="1.0"
     inkscape:pageopacity="0.0"
     inkscape:pageshadow="2"
     inkscape:zoom="0.85333333"
     inkscape:cx="300"
     inkscape:cy="48.5"
     inkscape:document-units="px"
     inkscape:current-layer="layer1"
     showgrid="false"
     inkscape:window-width="1366"
     inkscape:window-height="707"
     inkscape:window-x="0"
     inkscape:window-y="27"
     inkscape:window-maximized="1" />
  <defs
     id="defs622" />
  <metadata
     id="metadata625">
    <rdf:RDF>
      <cc:Work
         rdf:about="">
        <dc:format>image/svg+xml</dc:format>
        <dc:type
           rdf:resource="http://purl.org/dc/dcmitype/StillImage" />
        <dc:title></dc:title>
      </cc:Work>
    </rdf:RDF>
  </metadata>
  <g
     id="layer1"
     inkscape:groupmode="layer"
     inkscape:label="Camada 1">
    <g
       id="g34"
       transform="matrix(0.9144018,0,0,0.9144018,204.6083,-137.94139)">
      <path
         style="fill:#7db3d7;stroke-width:0.26458335"
         d="m -223.76192,204.01785 v -52.91667 h 328.08335 328.08334 v 52.91667 52.91667 H 104.32143 -223.76192 Z"
         id="path50"
         inkscape:connector-curvature="0" />
      <path
         style="fill:#94abbb;stroke-width:0.26458335"
         d="m -223.76192,204.01785 v -52.91667 h 189.441673 c 133.156198,0 189.441677,0.0832 189.441677,0.2802 0,0.15411 0.11213,0.2109 0.24915,0.12621 0.2276,-0.14067 3.13429,1.93313 6.10085,4.35267 0.65484,0.5341 2.61937,2.05846 4.36562,3.38747 1.74625,1.329 4.96094,3.79103 7.14375,5.47117 2.18282,1.68013 5.33797,4.10323 7.01146,5.38465 3.30285,2.52905 5.57059,4.27617 7.96068,6.13305 0.84288,0.65484 3.11724,2.40714 5.05415,3.89399 1.93691,1.48684 5.30757,4.08161 7.49038,5.76613 2.18281,1.68453 5.51656,4.24505 7.40833,5.69004 1.89177,1.44499 4.74927,3.64288 6.35,4.88419 6.58956,5.10996 7.89599,6.1161 8.59693,6.62086 0.40415,0.29104 2.56426,1.95162 4.8002,3.69018 2.23597,1.73856 5.67272,4.38802 7.63725,5.8877 1.96453,1.49968 4.88156,3.73877 6.48229,4.97577 6.73809,5.20699 7.91956,6.11645 8.76292,6.74531 0.48789,0.3638 2.88301,2.20908 5.32249,4.10062 2.43949,1.89154 5.80464,4.47846 7.47813,5.7487 1.67349,1.27024 4.11427,3.14285 5.42396,4.16135 3.38458,2.63207 8.24966,6.37827 9.29328,7.156 2.51304,1.87278 10.71967,8.24166 12.11921,9.40531 l 1.60626,1.33552 70.11459,-52.57849 c 38.56302,-28.91818 70.20388,-52.58752 70.31302,-52.59855 0.10914,-0.011 0.19844,23.79245 0.19844,52.89662 v 52.91667 H 104.32143 -223.76192 Z"
         id="path48"
         inkscape:connector-curvature="0" />
      <path
         style="fill:#fd8537;stroke-width:0.26458335"
         d="M -223.76192,204.01785 V 151.10118 H -34.702413 154.3571 l 5.60768,4.31471 c 3.08423,2.37309 11.08456,8.52305 17.77852,13.66658 6.69396,5.14352 13.42099,10.32411 14.94896,11.51241 2.73915,2.13025 15.19359,11.72948 17.82832,13.74113 3.6505,2.78722 14.3574,11.02235 18.94877,14.57433 2.83765,2.19526 6.1714,4.7678 7.40833,5.71675 1.23693,0.94894 12.13115,9.33057 24.20938,18.62584 12.07823,9.29527 23.21057,17.85254 24.73854,19.01615 1.52797,1.16362 3.33044,2.5703 4.00547,3.12597 0.67503,0.55567 1.35501,1.0103 1.51104,1.0103 0.15602,0 31.90047,-23.69344 70.54324,-52.65208 38.64274,-28.95865 70.31802,-52.65209 70.38948,-52.65209 0.0715,0 0.12994,23.8125 0.12994,52.91667 v 52.91667 H 104.32143 -223.76192 Z"
         id="path46"
         inkscape:connector-curvature="0" />
      <path
         style="fill:#dc7430;stroke-width:0.26458335"
         d="m 290.98497,256.66994 c 0.0899,-0.14552 0.27091,-0.26459 0.40217,-0.26459 0.13126,0 31.85544,-23.69344 70.49821,-52.65208 38.64274,-28.95865 70.31802,-52.65209 70.38948,-52.65209 0.0715,0 0.12994,23.8125 0.12994,52.91667 v 52.91667 h -70.79165 c -47.12709,0 -70.737,-0.0885 -70.62815,-0.26458 z m -12.60147,-9.98802 c -0.32909,-0.41965 -0.31975,-0.42901 0.0999,-0.0999 0.44072,0.34564 0.58089,0.56292 0.36311,0.56292 -0.0549,0 -0.26328,-0.20836 -0.46302,-0.46302 z m -3.43958,-2.64584 c -0.32909,-0.41964 -0.31975,-0.429 0.0999,-0.0999 0.44071,0.34564 0.58089,0.56291 0.36311,0.56291 -0.0549,0 -0.26329,-0.20836 -0.46302,-0.46302 z m -3.175,-2.38125 c -0.32909,-0.41964 -0.31975,-0.429 0.0999,-0.0999 0.44071,0.34564 0.58089,0.56291 0.36311,0.56291 -0.0549,0 -0.26329,-0.20836 -0.46302,-0.46302 z m -3.70417,-2.91042 c -0.32909,-0.41964 -0.31975,-0.429 0.0999,-0.0999 0.44072,0.34564 0.58089,0.56292 0.36311,0.56292 -0.0549,0 -0.26328,-0.20836 -0.46302,-0.46303 z m -4.49791,-3.43958 c -0.32909,-0.41964 -0.31975,-0.429 0.0999,-0.0999 0.44072,0.34564 0.5809,0.56291 0.36312,0.56291 -0.0549,0 -0.26329,-0.20836 -0.46302,-0.46302 z m -6.87917,-5.29167 c -0.32909,-0.41964 -0.31975,-0.429 0.0999,-0.0999 0.44071,0.34564 0.58089,0.56291 0.36311,0.56291 -0.0549,0 -0.26329,-0.20835 -0.46302,-0.46302 z m -3.43958,-2.64583 c -0.32909,-0.41964 -0.31975,-0.429 0.0999,-0.0999 0.25466,0.19973 0.46302,0.40808 0.46302,0.46303 0,0.21776 -0.21727,0.0776 -0.56292,-0.36313 z m -2.38125,-1.85208 c -0.32909,-0.41965 -0.31975,-0.42901 0.0999,-0.0999 0.44072,0.34564 0.5809,0.56292 0.36312,0.56292 -0.0549,0 -0.26329,-0.20836 -0.46302,-0.46302 z m -6.87917,-5.29167 c -0.32909,-0.41964 -0.31975,-0.429 0.0999,-0.0999 0.44071,0.34565 0.58089,0.56292 0.36311,0.56292 -0.0549,0 -0.26329,-0.20836 -0.46302,-0.46302 z m -5.82083,-4.49792 c -0.32909,-0.41964 -0.31975,-0.429 0.0999,-0.0999 0.44072,0.34564 0.58089,0.56291 0.36312,0.56291 -0.0549,0 -0.26329,-0.20836 -0.46302,-0.46302 z m -2.11667,-1.5875 c -0.32909,-0.41964 -0.31975,-0.429 0.0999,-0.0999 0.44071,0.34564 0.58089,0.56291 0.36311,0.56291 -0.0549,0 -0.26329,-0.20836 -0.46302,-0.46302 z M 229.171,208.8465 c -0.32909,-0.41965 -0.31975,-0.42901 0.0999,-0.0999 0.44072,0.34564 0.58089,0.56292 0.36311,0.56292 -0.0549,0 -0.26328,-0.20836 -0.46302,-0.46302 z m -1.182,-0.92605 -0.50403,-0.59531 0.59531,0.50403 c 0.55944,0.47366 0.71575,0.6866 0.50403,0.6866 -0.0502,0 -0.3181,-0.26789 -0.59531,-0.59532 z m -1.19925,-0.92617 c -0.32909,-0.41964 -0.31975,-0.429 0.0999,-0.0999 0.44071,0.34564 0.58089,0.56291 0.36311,0.56291 -0.0549,0 -0.26328,-0.20836 -0.46302,-0.46302 z m -1.32291,-1.05833 c -0.32909,-0.41965 -0.31975,-0.429 0.0999,-0.0999 0.44072,0.34565 0.58089,0.56292 0.36312,0.56292 -0.0549,0 -0.26329,-0.20836 -0.46302,-0.46302 z m -1.05834,-0.79375 c -0.32909,-0.41965 -0.31975,-0.429 0.0999,-0.0999 0.44071,0.34565 0.58089,0.56292 0.36311,0.56292 -0.0549,0 -0.26328,-0.20836 -0.46302,-0.46302 z m -3.43958,-2.64583 c -0.32909,-0.41965 -0.31975,-0.42901 0.0999,-0.0999 0.44072,0.34564 0.5809,0.56292 0.36312,0.56292 -0.0549,0 -0.26329,-0.20836 -0.46302,-0.46302 z m -3.43959,-2.64584 c -0.32908,-0.41964 -0.31974,-0.429 0.0999,-0.0999 0.44072,0.34564 0.58089,0.56291 0.36312,0.56291 -0.0549,0 -0.26329,-0.20836 -0.46303,-0.46302 z m -1.05833,-0.79375 c -0.32909,-0.41964 -0.31975,-0.429 0.0999,-0.0999 0.44071,0.34564 0.58089,0.56291 0.36311,0.56291 -0.0549,0 -0.26328,-0.20836 -0.46302,-0.46302 z m -5.82083,-4.49791 c -0.32909,-0.41965 -0.31975,-0.42901 0.0999,-0.0999 0.44072,0.34564 0.5809,0.56292 0.36312,0.56292 -0.0549,0 -0.26329,-0.20836 -0.46302,-0.46302 z m -2.24034,-1.7198 -0.50403,-0.59531 0.59532,0.50403 c 0.55943,0.47366 0.71575,0.6866 0.50403,0.6866 -0.0502,0 -0.31811,-0.26789 -0.59532,-0.59532 z m -1.19925,-0.92604 c -0.32908,-0.41964 -0.31974,-0.429 0.0999,-0.0999 0.44072,0.34564 0.58089,0.56291 0.36312,0.56291 -0.0549,0 -0.26329,-0.20836 -0.46303,-0.46302 z m -5.55625,-4.23333 c -0.32908,-0.41965 -0.31974,-0.42901 0.0999,-0.0999 0.44072,0.34565 0.58089,0.56292 0.36312,0.56292 -0.0549,0 -0.26329,-0.20836 -0.46303,-0.46302 z m -1.32291,-1.05834 c -0.32909,-0.41964 -0.31975,-0.429 0.0999,-0.0999 0.44072,0.34564 0.5809,0.56292 0.36312,0.56292 -0.0549,0 -0.26329,-0.20836 -0.46302,-0.46303 z m -1.05834,-0.79375 c -0.32908,-0.41964 -0.31974,-0.429 0.0999,-0.0999 0.44072,0.34564 0.58089,0.56292 0.36312,0.56292 -0.0549,0 -0.26329,-0.20836 -0.46303,-0.46303 z m -1.32291,-1.05833 c -0.32909,-0.41964 -0.31975,-0.429 0.0999,-0.0999 0.44072,0.34564 0.5809,0.56291 0.36312,0.56291 -0.0549,0 -0.26329,-0.20836 -0.46302,-0.46302 z m -1.05834,-0.79375 c -0.32908,-0.41964 -0.31974,-0.429 0.0999,-0.0999 0.44072,0.34564 0.58089,0.56291 0.36311,0.56291 -0.0549,0 -0.26328,-0.20836 -0.46302,-0.46302 z m -4.7625,-3.70417 c -0.32908,-0.41964 -0.31975,-0.429 0.0999,-0.0999 0.44072,0.34564 0.58089,0.56292 0.36311,0.56292 -0.0549,0 -0.26328,-0.20836 -0.46302,-0.46303 z m -2.11666,-1.58737 c -0.32909,-0.41964 -0.31975,-0.429 0.0999,-0.0999 0.44072,0.34564 0.5809,0.56292 0.36312,0.56292 -0.0549,0 -0.26329,-0.20836 -0.46302,-0.46303 z m -2.38125,-1.85208 c -0.32909,-0.41964 -0.31975,-0.429 0.0999,-0.0999 0.44072,0.34564 0.5809,0.56291 0.36312,0.56291 -0.0549,0 -0.26329,-0.20836 -0.46302,-0.46302 z m -4.49792,-3.43958 c -0.32909,-0.41965 -0.31975,-0.42901 0.0999,-0.0999 0.44071,0.34565 0.58089,0.56292 0.36311,0.56292 -0.0549,0 -0.26329,-0.20836 -0.46302,-0.46302 z m -2.38125,-1.85209 c -0.32909,-0.41964 -0.31975,-0.429 0.0999,-0.0999 0.44071,0.34564 0.58089,0.56291 0.36311,0.56291 -0.0549,0 -0.26329,-0.20835 -0.46302,-0.46302 z m -1.05833,-0.79375 c -0.32909,-0.41964 -0.31975,-0.429 0.0999,-0.0999 0.44072,0.34564 0.5809,0.56291 0.36312,0.56291 -0.0549,0 -0.26329,-0.20835 -0.46302,-0.46302 z m -2.38125,-1.85208 c -0.32909,-0.41964 -0.31975,-0.429 0.0999,-0.0999 0.25466,0.19971 0.46302,0.40807 0.46302,0.46302 0,0.21776 -0.21727,0.0776 -0.56292,-0.36313 z m -1.05834,-0.79375 c -0.32909,-0.41964 -0.31975,-0.429 0.0999,-0.0999 0.44072,0.34564 0.58089,0.56291 0.36311,0.56291 -0.0549,0 -0.26328,-0.20836 -0.46302,-0.46302 z m -3.43958,-2.64583 c -0.32909,-0.41965 -0.31975,-0.42901 0.0999,-0.0999 0.25466,0.19972 0.46302,0.40808 0.46302,0.46302 0,0.21776 -0.21728,0.0776 -0.56293,-0.36312 z m -2.38125,-1.85209 c -0.32909,-0.41964 -0.31975,-0.429 0.0999,-0.0999 0.25466,0.19972 0.46302,0.40808 0.46302,0.46302 0,0.21776 -0.21728,0.0776 -0.56293,-0.36313 z m -1.05833,-0.79375 c -0.32909,-0.41964 -0.31975,-0.429 0.0999,-0.0999 0.44072,0.34564 0.5809,0.56291 0.36312,0.56291 -0.0549,0 -0.26329,-0.20836 -0.46302,-0.46302 z m -4.7625,-3.70416 c -0.32909,-0.41965 -0.31975,-0.42901 0.0999,-0.0999 0.44072,0.34565 0.5809,0.56292 0.36312,0.56292 -0.0549,0 -0.26329,-0.20836 -0.46302,-0.46302 z m -4.49792,-3.43959 c -0.32909,-0.41964 -0.31975,-0.429 0.0999,-0.0999 0.25466,0.19972 0.46302,0.40808 0.46302,0.46302 0,0.21776 -0.21728,0.0776 -0.56293,-0.36313 z m -3.43958,-2.64583 c -0.32909,-0.41964 -0.31975,-0.429 0.0999,-0.0999 0.25466,0.19972 0.46302,0.40808 0.46302,0.46303 0,0.21776 -0.21727,0.0776 -0.56292,-0.36313 z"
         id="path44"
         inkscape:connector-curvature="0"
         sodipodi:nodetypes="csssscscccsccccsccccsccccsccccsccccsccccscccscccsccccsccccsccccsccccsscccsccccscccsccccscccsccccsccccsccccscccsccccsccccsccccsccccsccccsccccsccccsccccsccccsccccsccccsccccsccccsccccsccccsccccsccccscccsccccsc" />
      <path
         style="fill:#006ab3;stroke-width:0.26458335"
         d="m 291.26279,256.69923 c 0.50416,-0.47195 140.886,-105.59805 141.01204,-105.59805 0.0715,0 0.12994,23.8125 0.12994,52.91667 v 52.91667 H 361.7081 c -41.27577,0 -70.59208,-0.0979 -70.44531,-0.23529 z"
         id="path42"
         inkscape:connector-curvature="0"
         sodipodi:nodetypes="csscsc" />
    </g>
  </g>
</svg>
