<?xml version="1.0" encoding="UTF-8" standalone="no"?>
<!-- Created with Inkscape (http://www.inkscape.org/) -->

<svg
   xmlns:dc="http://purl.org/dc/elements/1.1/"
   xmlns:cc="http://creativecommons.org/ns#"
   xmlns:rdf="http://www.w3.org/1999/02/22-rdf-syntax-ns#"
   xmlns:svg="http://www.w3.org/2000/svg"
   xmlns="http://www.w3.org/2000/svg"
   xmlns:sodipodi="http://sodipodi.sourceforge.net/DTD/sodipodi-0.dtd"
   xmlns:inkscape="http://www.inkscape.org/namespaces/inkscape"
   width="280px"
   height="350px"
   viewBox="0 0 280 350"
   version="1.1"
   id="SVGRoot"
   inkscape:version="0.92.1 r15371"
   sodipodi:docname="logo.svg">
  <sodipodi:namedview
     id="base"
     pagecolor="#ffffff"
     bordercolor="#666666"
     borderopacity="1.0"
     inkscape:pageopacity="0.0"
     inkscape:pageshadow="2"
     inkscape:zoom="1.2929953"
     inkscape:cx="140"
     inkscape:cy="175"
     inkscape:document-units="px"
     inkscape:current-layer="layer1"
     showgrid="false"
     inkscape:window-width="1366"
     inkscape:window-height="707"
     inkscape:window-x="0"
     inkscape:window-y="27"
     inkscape:window-maximized="1" />
  <defs
     id="defs454" />
  <metadata
     id="metadata457">
    <rdf:RDF>
      <cc:Work
         rdf:about="">
        <dc:format>image/svg+xml</dc:format>
        <dc:type
           rdf:resource="http://purl.org/dc/dcmitype/StillImage" />
        <dc:title></dc:title>
      </cc:Work>
    </rdf:RDF>
  </metadata>
  <g
     id="layer1"
     inkscape:groupmode="layer"
     inkscape:label="Camada 1">
    <g
       id="g90"
       transform="matrix(1.4909895,0,0,1.4909895,-1145.1763,-227.08102)">
      <g
         id="g126">
        <path
           sodipodi:nodetypes="sscccccccsscsccscsccssccccsccccccsscsccccccccccsccsccccccsccsccccccccccccccccccccccccccsscccsccccccccscscsccccscccccccscccccc"
           inkscape:connector-curvature="0"
           id="path96"
           d="m 873.1359,293.6424 c -2.16777,-1.48434 -2.85553,-2.77364 -2.85553,-5.35311 0,-1.79866 0.0909,-2.171 0.81851,-3.35355 1.23575,-2.00834 2.51241,-2.64673 5.29016,-2.64532 2.01438,0.001 2.33588,0.0742 3.38606,0.77095 0.65067,0.43167 1.49128,1.33188 1.91372,2.04939 0.62864,1.06773 0.75411,1.58027 0.75788,3.09585 0.006,2.4705 -0.811,3.97964 -2.94937,5.4471 -1.43041,0.98162 -1.69796,1.06898 -3.20599,1.04685 -1.45926,-0.0214 -1.81613,-0.1411 -3.15544,-1.05816 z m -40.54667,-0.28765 c -0.72777,-0.48206 -1.65023,-1.43619 -2.16203,-2.23625 -0.76648,-1.19821 -0.89266,-1.6261 -0.89266,-3.0272 0,-1.40606 0.13145,-1.84813 0.9504,-3.19627 1.33996,-2.20582 2.97453,-3.129 5.54624,-3.13243 1.61492,-0.002 2.03238,0.10277 3.09797,0.77855 0.67735,0.42956 1.59363,1.28086 2.03618,1.89178 0.75332,1.03994 0.80463,1.26126 0.80463,3.47134 0,2.05773 -0.0872,2.50945 -0.67998,3.52088 -0.41811,0.71344 -1.18386,1.47033 -1.98835,1.96534 -1.16477,0.71669 -1.53528,0.80505 -3.3757,0.80505 -1.88005,0 -2.18233,-0.0762 -3.3367,-0.84079 z m 78.43698,-46.27733 c -1.82314,-0.3505 -4.80624,-1.5006 -5.66071,-2.18242 -0.68147,-0.54378 -0.74561,-0.71945 -0.58167,-1.59331 0.11893,-0.63394 0.76991,-1.70599 1.83618,-3.02384 1.88137,-2.32525 2.8187,-3.77471 2.8187,-4.35871 0,-0.24694 -1.04807,-0.92023 -2.71198,-1.7422 -11.56886,-5.71499 -20.24789,-20.03163 -22.94522,-37.84968 -0.68021,-4.49328 -0.67886,-7.73364 0.005,-11.74109 1.81455,-10.6352 7.12091,-19.03011 15.59816,-24.67696 4.64668,-3.09525 8.86653,-4.6995 15.2959,-5.81503 4.66036,-0.80859 4.693,-0.80856 9.43064,0.007 8.56119,1.4735 14.62611,4.3844 20.07744,9.63631 5.73602,5.52618 9.24447,12.09812 10.79675,20.22421 0.8502,4.45076 0.89777,6.4894 0.23944,10.26267 -1.13244,6.49063 -2.63285,11.06364 -5.45555,16.62757 -5.21686,10.28315 -13.19299,18.83313 -21.41275,22.95331 -1.95171,0.97831 -6.155,2.33881 -7.9375,2.56919 -2.63633,0.34073 -2.59533,0.31633 -2.44277,1.45377 0.0753,0.56123 0.68546,2.17851 1.35597,3.59396 1.32573,2.79865 1.54732,4.24807 0.75608,4.94542 -1.01248,0.89232 -6.05752,1.28758 -9.06198,0.70998 z m 12.96261,-35.82638 c 0.32724,-0.3943 0.15973,-3.6849 -0.21873,-4.29676 -0.0969,-0.15666 -0.88861,-0.5352 -1.75937,-0.8412 -0.87076,-0.30601 -1.88234,-0.85552 -2.24796,-1.22114 -0.61871,-0.61871 -0.66484,-0.84315 -0.66576,-3.23944 l -10e-4,-2.57467 2.11667,-0.30275 c 9.43498,-1.34949 12.65222,-3.75603 13.65412,-10.21343 0.53729,-3.46294 -0.31157,-6.37575 -2.38983,-8.20048 -0.51419,-0.45146 -1.83026,-1.23506 -2.92459,-1.74133 l -1.98971,-0.92048 -6.08541,0.0244 c -3.34698,0.0134 -8.45216,0.0611 -11.34485,0.1059 -6.17438,0.0957 -6.06516,0.0441 -5.76567,2.72738 0.17424,1.5611 0.19698,1.59727 1.36781,2.17553 0.65484,0.32342 1.64233,0.71637 2.19443,0.87322 0.68694,0.19517 1.08462,0.49775 1.25982,0.95857 0.15586,0.40995 0.21051,4.39652 0.13969,10.19055 -0.10372,8.48642 -0.16637,9.59408 -0.57848,10.22736 -0.71198,1.09408 -1.19265,1.3541 -2.52004,1.36323 -0.7244,0.005 -1.35141,0.16147 -1.53545,0.38323 -0.51029,0.61486 -0.91578,3.8116 -0.5408,4.26343 0.25987,0.31312 1.71624,0.39365 8.15848,0.45114 4.31318,0.0385 8.63257,0.0981 9.59865,0.13255 1.27925,0.0456 1.84386,-0.0427 2.07798,-0.32477 z m -4.22932,-18.72165 c 10e-4,-0.1819 -0.0639,-2.42799 -0.14452,-4.99131 l -0.14657,-4.66058 1.00923,-0.16138 c 1.49536,-0.23912 2.87382,0.0708 3.55895,0.80005 0.49584,0.52779 0.62542,1.00967 0.70725,2.63007 0.11289,2.23562 -0.33896,3.79991 -1.49417,5.17281 -1.03154,1.22591 -3.49555,2.0804 -3.49017,1.21034 z m -30.64344,0.4529 c 0.28528,-0.72204 0.61314,-2.0995 0.72859,-3.06102 0.15007,-1.24976 0.4692,-2.19274 1.11928,-3.30729 0.50014,-0.85749 1.23783,-2.45204 1.63931,-3.54344 0.40147,-1.09141 1.00558,-2.28203 1.34246,-2.64584 0.33688,-0.3638 0.75462,-1.10628 0.92831,-1.64996 0.17369,-0.54367 0.431,-1.0597 0.5718,-1.14672 0.14081,-0.087 0.56764,-0.65188 0.94853,-1.25524 0.38089,-0.60337 0.97138,-1.31638 1.31219,-1.58446 0.34082,-0.26809 0.61968,-0.64768 0.61968,-0.84353 0,-0.19585 0.40041,-0.60356 0.8898,-0.90602 0.48939,-0.30246 1.70978,-1.42651 2.71198,-2.49789 1.60789,-1.71889 2.00886,-2.00092 3.40968,-2.39826 1.17861,-0.33432 1.84031,-0.71872 2.56906,-1.49244 0.74288,-0.78872 1.1861,-1.04214 1.82264,-1.04214 0.46259,0 1.86635,-0.49548 3.11947,-1.10107 2.26117,-1.09273 2.30843,-1.1026 6.24716,-1.30412 5.19442,-0.26576 6.79435,-0.10556 8.49887,0.85098 1.41048,0.79152 2.50029,0.94134 3.65474,0.50242 0.87637,-0.33319 0.85513,-0.65094 -0.12193,-1.8237 -1.42104,-1.70569 -1.56849,-1.80537 -3.37348,-2.28071 -0.98564,-0.25956 -2.02922,-0.72657 -2.34003,-1.04718 -0.99669,-1.0281 -4.36731,-1.54053 -9.1188,-1.3863 -4.75129,0.15421 -6.37782,0.4199 -7.19269,1.17488 -0.32451,0.30066 -1.09828,0.68155 -1.71949,0.84643 -1.75484,0.46577 -3.49926,1.28129 -4.42868,2.07041 -0.4663,0.39591 -1.48443,1.19608 -2.26253,1.77817 -1.61058,1.20485 -5.80536,5.27522 -5.80536,5.63318 0,0.13032 -0.655,1.1187 -1.45557,2.19639 -0.80057,1.0777 -1.52844,2.34784 -1.6175,2.82255 -0.089,0.4747 -0.25238,0.91901 -0.36295,0.98734 -0.27399,0.16934 -1.56407,2.83407 -1.88808,3.89992 -1.15732,3.80716 -2.34881,9.1973 -2.34881,10.62573 0,1.84102 0.67182,4.479 1.10399,4.33494 0.15383,-0.0513 0.51309,-0.68398 0.79836,-1.40601 z m -38.29035,43.49175 c -1.59531,-1.4007 -2.24214,-3.01282 -2.23536,-5.57127 0.006,-2.39909 0.41933,-3.65509 1.70096,-5.17336 1.28187,-1.51855 2.86834,-2.25442 5.14149,-2.38483 2.69556,-0.15465 3.92869,0.22156 5.5735,1.70038 1.59383,1.433 1.92284,2.00481 2.51562,4.3722 0.39649,1.58346 0.40188,1.8987 0.0526,3.07494 -0.53333,1.79591 -1.02482,2.66311 -2.16829,3.82583 l -0.97577,0.99219 h -4.32624 -4.32625 z"
           style="fill:#fd6501;stroke-width:0.26458332" />
        <path
           sodipodi:nodetypes="ccscscccsccccccscsccccccccsccccsccccccccccccccsccccssccccccccccccccccccccsccccscssccccccscccccccccccccccccsscccccscsccsccccsccccsccccsssccccsccsscccccccccsscccccsccsscsccccsccscccccccssscccscccccccccccccccc"
           inkscape:connector-curvature="0"
           id="path94"
           d="m 852.52858,384.85254 c -0.13955,-0.13955 -1.02656,-0.45131 -1.97115,-0.69282 -2.48655,-0.63573 -5.53195,-2.25815 -7.63289,-4.06637 -1.92475,-1.65658 -5.17763,-5.70289 -4.91989,-6.11993 0.19135,-0.30961 35.83848,-0.33051 35.83848,-0.021 0,0.63744 -2.49027,3.78275 -4.43704,5.60417 -2.44646,2.28892 -5.23073,3.84209 -8.2606,4.60807 -0.94458,0.2388 -1.8316,0.54835 -1.97114,0.6879 -0.13955,0.13954 -1.63485,0.25371 -3.32289,0.25371 -1.68804,0 -3.18334,-0.11417 -3.32288,-0.25371 z m -73.02179,-8.02835 c -1.60753,-0.75638 -3.69113,-1.71971 -4.6302,-2.14075 -0.93908,-0.42103 -2.22051,-0.99528 -2.84762,-1.2761 -0.62711,-0.28083 -1.1937,-0.65072 -1.25907,-0.82198 -0.0654,-0.17127 0.41794,-2.74863 1.07405,-5.72748 1.43581,-6.51881 1.45848,-6.93945 0.41557,-7.71051 -1.09874,-0.81233 -2.19261,-3.5668 -2.56249,-6.45258 -0.26984,-2.10527 -0.55132,-8.75604 -0.37843,-8.94127 0.16358,-0.17525 3.03433,0.2744 12.05265,1.88778 l 1.05834,0.18934 0.17197,2.50604 c 0.0946,1.37832 0.30295,2.92196 0.46303,3.43033 0.16007,0.50836 0.29286,1.52039 0.29509,2.24896 0.002,0.72856 0.10676,1.48676 0.23228,1.68489 0.13296,0.20984 2.23776,0.7792 5.04195,1.36388 2.64754,0.552 4.86032,1.05025 4.91728,1.10721 0.057,0.057 0.1851,3.13416 0.28476,6.83821 l 0.18118,6.73463 -1.82088,1.39653 c -1.00148,0.76808 -2.00134,1.36071 -2.2219,1.31694 -0.3435,-0.0682 -0.40101,-0.90153 -0.40101,-5.81145 0,-3.92788 -0.0947,-5.82773 -0.30093,-6.03642 -0.16551,-0.16749 -2.18016,-0.70006 -4.477,-1.18349 -4.0801,-0.85875 -5.65097,-0.93451 -6.17209,-0.29765 -0.21287,0.26015 -0.65647,2.10148 -1.90185,7.89436 -0.38904,1.80959 -0.25203,2.05132 1.54469,2.72535 0.68916,0.25854 1.96739,0.80313 2.84051,1.21021 0.87313,0.40708 2.54,1.1473 3.70417,1.64492 1.25032,0.53446 2.15175,1.08242 2.20239,1.3388 0.0615,0.31125 -0.46026,0.69567 -1.84461,1.3591 -1.0617,0.5088 -2.11231,0.91887 -2.33469,0.91126 -0.22239,-0.008 -1.7196,-0.63269 -3.32714,-1.38906 z m 53.98738,-6.06248 c -4.55127,-1.06722 -5.84071,-1.4755 -7.91031,-2.50468 -3.21287,-1.5977 -4.43619,-2.47726 -6.90636,-4.96559 -3.58364,-3.61001 -5.96329,-7.76906 -7.17245,-12.53574 -0.60323,-2.37801 -0.6378,-2.90821 -0.57127,-8.7627 l 0.0708,-6.23154 45.30989,-0.0669 45.3099,-0.0669 v 6.46575 c 0,7.38002 -0.20918,8.84008 -1.79281,12.51334 -2.06036,4.77905 -5.58484,9.23016 -9.1874,11.6029 -3.68336,2.42597 -5.99172,3.32994 -11.77396,4.61081 -1.54035,0.34122 -43.90424,0.28637 -45.37604,-0.0588 z m -52.25521,-29.09577 c -0.65484,-0.12333 -2.97656,-0.52839 -5.15937,-0.90012 -2.18281,-0.37174 -4.522,-0.79382 -5.19819,-0.93796 l -1.22944,-0.26207 0.14253,-1.10841 c 0.18728,-1.45645 1.46506,-5.08106 2.52782,-7.17058 1.68343,-3.3098 2.07087,-3.87795 3.66756,-5.37817 0.89226,-0.83834 1.93162,-1.86223 2.3097,-2.27531 0.37807,-0.41308 1.04528,-0.92548 1.48267,-1.13867 0.4374,-0.21319 1.20827,-0.61711 1.71306,-0.89761 0.50478,-0.28049 0.9986,-0.42294 1.09738,-0.31654 0.0988,0.10641 1.26051,2.93075 2.58163,6.27631 l 2.40206,6.08285 -1.43301,1.42164 c -0.78815,0.7819 -1.62523,1.85462 -1.86018,2.38382 -0.23495,0.52919 -0.58837,1.25983 -0.78538,1.62363 -0.19701,0.36381 -0.44215,1.10926 -0.54476,1.65657 -0.10261,0.54731 -0.26236,1.0333 -0.35501,1.07998 -0.0926,0.0467 -0.70422,-0.016 -1.35907,-0.13936 z m 29.80973,-8.85899 c -0.28265,-0.28265 -0.20476,-41.58057 0.0815,-43.21528 0.93238,-5.32433 2.05078,-9.29381 3.76461,-13.36146 1.28273,-3.04446 1.50444,-3.48512 2.89719,-5.75823 5.59417,-9.13023 11.82354,-14.09379 21.69176,-17.28397 8.30292,-2.68416 16.60222,-3.57088 23.37917,-2.4979 6.9899,1.10669 14.74722,3.70874 19.05524,6.39172 5.42697,3.37986 9.10283,7.14549 12.76079,13.07247 1.26662,2.05229 1.83043,3.15045 2.98361,5.81133 1.74821,4.03382 3.27188,9.64614 3.77113,13.89062 0.23976,2.03835 0.30463,8.15035 0.2436,22.95261 l -0.0832,20.17448 h -45.18452 c -24.85148,0 -45.26389,-0.0794 -45.3609,-0.17639 z m 56.44999,-8.16086 c 1.95037,-1.00857 2.69297,-3.68567 1.50951,-5.44181 -1.50896,-2.23914 -4.09321,-2.74908 -5.78438,-1.14141 -1.62513,1.54488 -1.94718,3.05348 -1.03398,4.84349 0.97755,1.91616 3.41992,2.71654 5.30885,1.73973 z m 9.69319,-0.27539 c 1.17866,-0.89901 1.67958,-1.94098 1.67246,-3.47891 -0.007,-1.40358 -0.39061,-2.05678 -1.83146,-3.11448 -1.90226,-1.39643 -4.7106,-0.42693 -5.66376,1.95525 -0.55053,1.37589 -0.54627,1.57349 0.0646,2.99855 0.6554,1.52899 1.85528,2.30436 3.57509,2.31027 0.98834,0.003 1.50908,-0.15658 2.18309,-0.67068 z m 9.15778,0.11308 c 1.38605,-0.90858 1.85278,-1.72333 1.87519,-3.27342 0.0478,-3.30769 -3.47766,-5.23515 -6.10041,-3.33524 -0.9957,0.72128 -1.9313,2.34423 -1.9313,3.35015 0,0.74371 1.03652,2.44219 1.91089,3.13126 1.12909,0.8898 2.99694,0.94579 4.24563,0.12725 z m -40.02319,-24.34965 c 2.69214,-0.28862 6.00965,-0.64677 7.37225,-0.79587 2.52685,-0.2765 3.80097,-0.1995 11.54546,0.6977 11.67349,1.35239 15.99276,1.00365 19.495,-1.57404 0.96947,-0.71354 1.47966,-1.39792 2.34702,-3.14831 0.98608,-1.99001 1.12319,-2.49824 1.24359,-4.60991 0.29214,-5.1237 -1.46639,-11.3285 -4.43636,-15.65332 -1.74003,-2.53382 -5.19728,-5.5904 -8.06592,-7.13116 -13.43816,-7.21772 -30.75094,-6.29205 -42.36808,2.26531 -5.11543,3.7681 -8.74199,10.8554 -9.28099,18.13762 -0.3231,4.36514 1.3557,8.52472 4.23044,10.48182 3.26666,2.22391 6.99774,2.50089 17.91759,1.33016 z m -57.63149,25.97558 c -1.33591,-3.36783 -2.42892,-6.23052 -2.42892,-6.36153 0,-0.13101 0.50601,-0.36191 1.12448,-0.51312 0.61846,-0.15121 1.48166,-0.38697 1.91822,-0.5239 1.53856,-0.4826 4.9717,-0.80898 8.41967,-0.80043 5.36995,0.0133 6.78045,0.68608 8.55378,4.08002 0.59042,1.13 0.66762,1.54917 0.5604,3.04271 -0.15453,2.15256 -0.86628,3.59793 -2.36775,4.80822 -1.55555,1.2539 -2.78097,1.55145 -6.46554,1.56993 -2.84865,0.0143 -4.19698,0.15621 -6.20548,0.6532 -0.66881,0.16549 -0.71964,0.0681 -3.10886,-5.9551 z m 122.63824,3.5131 c -3.40082,-0.29222 -6.40689,-4.19868 -5.86025,-7.61553 0.25442,-1.59028 1.88724,-3.91138 3.16288,-4.49612 1.45241,-0.66577 4.57976,-1.60802 5.97525,-1.8003 0.39653,-0.0546 1.2331,-0.43181 3.4665,-1.56291 l 0.97508,-0.49383 1.42221,1.79326 c 0.78222,0.98629 2.62635,3.36055 4.09807,5.27614 2.45771,3.19895 2.63974,3.51504 2.23291,3.87723 -0.89338,0.79534 -4.79184,2.56364 -7.60599,3.44999 -5.06875,1.59647 -5.82469,1.74753 -7.86666,1.57207 z m 18.15203,-8.73945 c -0.40759,-0.54311 -2.19868,-2.87207 -3.98022,-5.17548 l -3.23914,-4.188 1.11503,-2.03165 c 0.61327,-1.11741 1.1475,-2.39008 1.18719,-2.82817 0.35923,-3.96547 0.39167,-4.1073 0.96694,-4.22696 1.30219,-0.27084 12.36881,-0.99182 12.54342,-0.81719 0.30922,0.30926 0.18304,5.41407 -0.18347,7.42263 -0.51066,2.7985 -1.54886,5.65787 -2.62739,7.23625 -0.53195,0.77847 -1.14577,1.75164 -1.36405,2.16259 -0.45046,0.84804 -3.02438,3.43346 -3.41821,3.43346 -0.14246,0 -0.59251,-0.44437 -1.0001,-0.98748 z m -5.70679,-22.49429 c -0.0562,-0.10914 -0.32621,-0.97235 -0.60005,-1.91823 -0.27383,-0.94589 -0.90739,-2.4248 -1.4079,-3.28647 -0.81544,-1.40387 -0.92347,-1.82396 -1.03951,-4.04233 l -0.12949,-2.47564 -1.7495,-0.95973 c -0.96222,-0.52785 -2.04715,-1.21993 -2.41095,-1.53796 -0.36381,-0.31803 -1.13771,-0.85378 -1.7198,-1.19056 -0.58208,-0.33678 -2.10013,-1.27226 -3.37343,-2.07883 -2.71559,-1.72019 -2.71056,-1.7033 -1.50868,-5.06598 0.4421,-1.23693 1.05694,-2.96334 1.3663,-3.83646 0.30936,-0.87313 0.64568,-1.70656 0.74737,-1.85208 0.10169,-0.14552 0.39536,-0.91943 0.65261,-1.7198 0.80452,-2.50302 1.02647,-2.77996 2.72409,-3.39894 2.01737,-0.73557 2.07765,-0.72792 2.28469,0.29009 0.46801,2.30129 0.45509,2.44588 -0.38427,4.29948 -0.89129,1.96824 -2.37638,5.99514 -2.37638,6.44363 0,0.32588 1.53537,1.4232 4.36562,3.12007 1.16417,0.69797 2.6318,1.65941 3.26141,2.13652 1.88179,1.42602 1.96234,1.36325 3.64022,-2.83668 0.26161,-0.65484 0.87791,-2.08053 1.36956,-3.16819 1.36653,-3.02316 1.36761,-3.19451 0.0273,-4.3418 -0.62903,-0.53842 -1.91122,-1.40818 -2.8493,-1.93278 -2.72079,-1.52155 -3.95913,-2.51913 -3.97757,-3.20422 -0.009,-0.33465 -0.1988,-0.96122 -0.42176,-1.39238 -0.39052,-0.75517 -0.38176,-0.79291 0.23888,-1.02887 0.35434,-0.13472 0.72239,-0.37136 0.81787,-0.52586 0.20433,-0.3306 2.52363,-0.38425 2.52363,-0.0584 0,0.1224 0.56555,0.54602 1.25677,0.94139 0.69122,0.39537 2.68552,1.7189 4.43177,2.94118 1.74625,1.22228 3.80378,2.61436 4.57229,3.09351 1.18353,0.73791 1.38012,0.97237 1.28508,1.53264 -0.16327,0.96246 -2.45886,6.6667 -3.89722,9.6841 -0.42324,0.88786 -0.76952,1.76175 -0.76952,1.94197 0,0.18022 0.56554,0.96622 1.25677,1.74667 1.60902,1.81673 3.61474,5.80784 4.15511,8.26812 0.10444,0.47549 0.46306,1.5616 0.79694,2.41356 0.33389,0.85197 0.51711,1.69458 0.40717,1.87246 -0.12997,0.21031 -2.13177,0.4953 -5.72305,0.81479 -6.11565,0.54405 -7.69129,0.60673 -7.84304,0.31198 z M 852.41188,242.62813 V 239.85 h 3.30729 3.30729 v 2.77813 2.77812 h -3.30729 -3.30729 z"
           style="fill:#006ab4;stroke-width:0.26458332" />
        <path
           inkscape:connector-curvature="0"
           id="path92"
           d="m 906.20177,314.53331 c -2.0903,-1.4641 -2.27067,-6.08962 -0.38106,-9.7721 0.62257,-1.21327 2.26003,-3.32025 3.49562,-4.49792 1.66059,-1.58275 4.27929,-4.81116 5.42614,-6.68951 0.55826,-0.91434 1.28003,-2.58121 1.60392,-3.70417 0.36283,-1.25793 0.7272,-2.04174 0.94916,-2.04174 0.59738,0 0.57606,1.68524 -0.0428,3.3825 -1.09054,2.99091 -2.71075,5.27168 -7.26684,10.2295 -3.23021,3.51503 -4.6537,6.6612 -4.27244,9.44282 0.19796,1.44423 0.52855,2.08997 1.34326,2.62379 0.55178,0.36154 0.7334,0.36545 1.51205,0.0326 0.48672,-0.20807 1.23464,-0.75016 1.66205,-1.20465 1.32053,-1.40419 2.05591,-0.80221 0.93795,0.76782 -1.18542,1.66476 -3.62846,2.36864 -4.96702,1.43107 z m 12.81936,-37.6195 c -0.27863,-0.45647 -0.29271,-7.72688 -0.0155,-8.00409 0.5617,-0.56169 0.91707,0.46055 1.07791,3.10064 0.18703,3.06967 -0.0425,5.10189 -0.57623,5.10189 -0.20078,0 -0.41955,-0.0893 -0.48617,-0.19844 z m -2.02607,-15.74792 c -0.13629,-0.32456 -0.60729,-1.54571 -1.04667,-2.71367 -0.43939,-1.16796 -1.34681,-2.9539 -2.01649,-3.96875 -2.24724,-3.40551 -2.69331,-4.6233 -1.69349,-4.6233 0.33898,0 0.63577,0.26318 0.80819,0.71666 0.14986,0.39416 0.73179,1.38956 1.29318,2.212 1.6995,2.48977 3.71291,6.91556 3.71291,8.16157 0,0.75669 -0.76494,0.91254 -1.05763,0.21549 z"
           style="fill:#000000;stroke-width:0.26458332" />
      </g>
    </g>
  </g>
</svg>
