<?xml version="1.0" encoding="UTF-8" standalone="no"?>
<!-- Created with Inkscape (http://www.inkscape.org/) -->

<svg
   xmlns:dc="http://purl.org/dc/elements/1.1/"
   xmlns:cc="http://creativecommons.org/ns#"
   xmlns:rdf="http://www.w3.org/1999/02/22-rdf-syntax-ns#"
   xmlns:svg="http://www.w3.org/2000/svg"
   xmlns="http://www.w3.org/2000/svg"
   xmlns:sodipodi="http://sodipodi.sourceforge.net/DTD/sodipodi-0.dtd"
   xmlns:inkscape="http://www.inkscape.org/namespaces/inkscape"
   width="582px"
   height="73px"
   viewBox="0 0 582 73"
   version="1.1"
   id="SVGRoot"
   inkscape:version="0.92.1 r15371"
   sodipodi:docname="desenhando.svg">
  <sodipodi:namedview
     id="base"
     pagecolor="#ffffff"
     bordercolor="#666666"
     borderopacity="1.0"
     inkscape:pageopacity="0.0"
     inkscape:pageshadow="2"
     inkscape:zoom="0.87972509"
     inkscape:cx="480.99524"
     inkscape:cy="36.5"
     inkscape:document-units="px"
     inkscape:current-layer="layer1"
     showgrid="false"
     inkscape:window-width="1366"
     inkscape:window-height="707"
     inkscape:window-x="0"
     inkscape:window-y="27"
     inkscape:window-maximized="1" />
  <defs
     id="defs531" />
  <metadata
     id="metadata534">
    <rdf:RDF>
      <cc:Work
         rdf:about="">
        <dc:format>image/svg+xml</dc:format>
        <dc:type
           rdf:resource="http://purl.org/dc/dcmitype/StillImage" />
        <dc:title></dc:title>
      </cc:Work>
    </rdf:RDF>
  </metadata>
  <g
     id="layer1"
     inkscape:groupmode="layer"
     inkscape:label="Camada 1">
    <path
       id="flowRoot3699-1"
       style="font-style:normal;font-variant:normal;font-weight:normal;font-stretch:normal;font-size:64px;line-height:1.25;font-family:BEYNO;-inkscape-font-specification:BEYNO;letter-spacing:0px;word-spacing:0px;fill:#ff6600;fill-opacity:1;stroke:none;stroke-width:0.99999994"
       d="m 156.53555,0.77747191 c -0.64,0 -1.08775,0.27737949 -1.34375,0.83202899 L 146.84024,20.66419 h 5.53711 l 4.22266,-9.902348 4.20312,9.902348 h 5.44141 C 163.73699,14.874089 161.06996,8.7083419 158.00626,1.6095009 157.83557,1.2681718 157.687,1.0541409 157.55899,0.9688823 157.43097,0.8408697 157.15363,0.77748703 156.72696,0.77748703 Z"
       inkscape:connector-curvature="0" />
    <g
       aria-label="Robos Na Escola"
       transform="translate(-114.04416,-171.47804)"
       style="font-style:normal;font-variant:normal;font-weight:normal;font-stretch:normal;font-size:64px;line-height:1.25;font-family:BEYNO;-inkscape-font-specification:BEYNO;letter-spacing:0px;word-spacing:0px;fill:#006bb5;fill-opacity:1;stroke:none"
       id="flowRoot3699-4-7">
      <path
         d="m 133.93316,221.96237 q 1.728,-0.128 3.2,-0.896 1.536,-0.832 2.688,-2.048 1.152,-1.28 1.792,-2.88 0.704,-1.6 0.704,-3.328 0,-1.72799 -0.704,-3.392 -0.704,-1.664 -1.92,-2.944 -1.152,-1.28 -2.816,-2.048 -1.6,-0.768 -3.392,-0.768 h -15.424 q -1.024,0 -1.024,-1.08799 v -3.20001 q 0,-0.96 1.024,-0.96 h 15.488 q 2.88,0 5.44,1.152 2.56,1.152 4.48,3.136 1.92,1.92001 3.072,4.544 1.152,2.624 1.152,5.504 0,2.432 -0.832,4.736 -0.832,2.24 -2.304,4.096 -1.408,1.856 -3.392,3.264 -1.984,1.408 -4.352,2.048 l 9.984,16.64 q 0.192,0.384 0.192,0.512 0,0.192 -0.576,0.192 h -4.8 q -0.512,0 -0.832,-0.256 -0.32,-0.32 -0.576,-0.704 l -9.664,-16.064 h -10.944 v 16.064 q 0,0.96 -0.96,0.96 h -3.328 q -1.024,0 -1.024,-0.96 v -20.224 q 0,-1.088 1.024,-1.088 z"
         style="fill:#006bb5"
         id="path590" />
      <path
         d="m 177.40116,197.00237 q 4.864,0 9.152,1.856 4.288,1.856 7.488,5.12 3.264,3.20001 5.12,7.488 1.856,4.288 1.856,9.15201 0,4.86399 -1.856,9.15199 -1.856,4.288 -5.12,7.552 -3.2,3.2 -7.488,5.056 -4.288,1.856 -9.152,1.856 -4.928,0 -9.216,-1.856 -4.288,-1.856 -7.488,-5.056 -3.2,-3.264 -5.056,-7.552 -1.856,-4.288 -1.856,-9.15199 0,-4.86401 1.856,-9.15201 1.856,-4.28799 5.056,-7.488 3.2,-3.264 7.488,-5.12 4.288,-1.856 9.216,-1.856 z m 0,42.048 q 3.776,0 7.104,-1.472 3.392,-1.47199 5.888,-3.968 2.496,-2.496 3.904,-5.824 1.472,-3.392 1.472,-7.16799 0,-3.84001 -1.472,-7.16801 -1.408,-3.392 -3.904,-5.888 -2.496,-2.496 -5.888,-3.904 -3.328,-1.472 -7.104,-1.472 -3.84,0 -7.232,1.472 -3.328,1.408 -5.824,3.904 -2.496,2.496 -3.968,5.888 -1.408,3.328 -1.408,7.16801 0,3.77599 1.408,7.16799 1.472,3.328 3.968,5.824 2.496,2.49601 5.824,3.968 3.392,1.472 7.232,1.472 z"
         style="fill:#006bb5"
         id="path592" />
      <path
         d="m 211.07316,203.65837 q -1.024,0 -1.024,-1.08799 v -3.20001 q 0,-0.96 1.024,-0.96 h 15.488 q 2.368,0 4.544,0.96 2.24,0.896 3.904,2.496 1.664,1.6 2.688,3.84 1.024,2.176 1.024,4.8 0,2.688 -1.088,5.12 -1.088,2.432 -3.136,4.288 3.072,1.856 4.864,4.864 1.792,3.008 1.792,6.464 0,2.624 -1.024,4.992 -1.024,2.368 -2.816,4.16 -1.728,1.792 -4.096,2.816 -2.304,1.024 -4.864,1.024 h -20.48 q -1.088,0 -1.088,-0.96 v -24.256 q 0,-1.024 1.024,-1.024 h 18.368 q 1.472,0 2.752,-0.576 1.28,-0.576 2.24,-1.536 0.96,-0.96 1.536,-2.24 0.576,-1.28 0.576,-2.752 0,-3.072 -1.984,-5.12 -1.92,-2.112 -5.056,-2.112 z m 0.96,35.328 h 16.256 q 1.536,0 2.88,-0.64 1.344,-0.704 2.304,-1.792 1.024,-1.088 1.6,-2.496 0.576,-1.408 0.64,-2.88 0,-1.536 -0.576,-2.944 -0.512,-1.472 -1.536,-2.56 -0.96,-1.152 -2.368,-1.792 -1.344,-0.64 -2.944,-0.64 h -16.256 z"
         style="fill:#006bb5"
         id="path594" />
      <path
         d="m 270.90116,197.00237 q 4.864,0 9.152,1.856 4.288,1.856 7.488,5.12 3.264,3.20001 5.12,7.488 1.856,4.288 1.856,9.15201 0,4.86399 -1.856,9.15199 -1.856,4.288 -5.12,7.552 -3.2,3.2 -7.488,5.056 -4.288,1.856 -9.152,1.856 -4.928,0 -9.216,-1.856 -4.288,-1.856 -7.488,-5.056 -3.2,-3.264 -5.056,-7.552 -1.856,-4.288 -1.856,-9.15199 0,-4.86401 1.856,-9.15201 1.856,-4.28799 5.056,-7.488 3.2,-3.264 7.488,-5.12 4.288,-1.856 9.216,-1.856 z m 0,42.048 q 3.776,0 7.104,-1.472 3.392,-1.47199 5.888,-3.968 2.496,-2.496 3.904,-5.824 1.472,-3.392 1.472,-7.16799 0,-3.84001 -1.472,-7.16801 -1.408,-3.392 -3.904,-5.888 -2.496,-2.496 -5.888,-3.904 -3.328,-1.472 -7.104,-1.472 -3.84,0 -7.232,1.472 -3.328,1.408 -5.824,3.904 -2.496,2.496 -3.968,5.888 -1.408,3.328 -1.408,7.16801 0,3.77599 1.408,7.16799 1.472,3.328 3.968,5.824 2.496,2.49601 5.824,3.968 3.392,1.472 7.232,1.472 z"
         style="fill:#006bb5"
         id="path596" />
      <path
         d="m 308.73316,205.45037 q -0.128,0.128 -0.576,0.768 -0.384,0.64 -0.832,1.6 -0.448,0.896 -0.832,1.92 -0.32,1.024 -0.32,1.984 0,2.624 1.728,4.928 1.152,1.536 2.368,3.008 1.28,1.408 2.24,2.944 1.024,1.536 1.664,3.328 0.64,1.792 0.64,4.096 0,2.816 -1.024,5.376 -1.024,2.496 -2.816,4.48 -1.792,1.984 -4.288,3.20001 -2.496,1.21599 -5.376,1.40799 -0.512,0 -0.768,-0.32 -0.256,-0.31999 -0.256,-0.83199 v -2.81601 q 0,-0.896 1.024,-1.024 1.728,-0.192 3.264,-1.152 1.536,-0.96 2.688,-2.304 1.152,-1.408 1.856,-3.072 0.704,-1.728 0.704,-3.392 0,-1.92 -0.896,-3.52 -0.832,-1.6 -2.048,-3.008 -1.216,-1.40799 -2.496,-2.816 -1.216,-1.408 -1.984,-2.944 -1.408,-2.816 -1.408,-5.824 0,-2.752 1.024,-5.31199 1.088,-2.56 2.944,-4.54401 1.856,-1.984 4.352,-3.264 2.56,-1.28 5.504,-1.408 0.512,0 0.768,0.32 0.256,0.32 0.256,0.832 v 2.944 q 0,0.832 -1.024,0.96 -1.856,0.256 -3.392,1.216 -1.472,0.89601 -2.688,2.24 z"
         style="fill:#006bb5"
         id="path598" />
      <path
         d="m 384.11516,198.34637 q 0.704,0 0.96,0.32001 0.256,0.25599 0.256,0.70399 l -0.32,43.904 q 0,0.96 -1.152,0.96 h -4.096 l -28.416,-38.4 v 23.808 l 11.2,0.064 q 0.96,0 0.96,1.024 v 3.264 q 0,0.448 -0.256,0.768 -0.256,0.32001 -0.768,0.32001 l -15.488,-0.064 q -0.96,0 -0.96,-0.832 v -35.00799 q 0,-1.024 1.088,-1.024 h 4.416 q 0.64,0 1.024,0.512 l 27.2,36.67199 0.256,-36.032 q 0,-0.384 0.256,-0.63999 0.32,-0.32001 0.704,-0.32001 h 2.816 z m -16,40.512 q 0.96,0 0.96,1.024 v 3.264 q 0,0.44801 -0.32,0.768 -0.256,0.32 -0.704,0.32 h -21.056 q -0.96,0 -0.96,-0.96 v -3.264 q 0,-0.512 0.256,-0.832 0.256,-0.32 0.768,-0.32 z"
         style="fill:#006bb5"
         id="path600" />
      <path
         d="m 413.42616,199.17838 q 5.248,12.15999 9.408,21.75999 1.728,4.096 3.392,8 1.728,3.904 3.072,6.976 1.6,3.584 2.944,6.784 0.128,0.32 0.128,0.512 0.064,0.12801 0.064,0.256 0,0.768 -1.088,0.768 h -38.72 q -1.216,0 -1.216,-0.96 0,-0.384 0.128,-0.576 l 19.072,-43.51999 q 0.384,-0.83201 1.344,-0.83201 h 0.192 q 0.64,0 0.832,0.192 0.192,0.12801 0.448,0.64001 z m -14.4,39.61599 h 25.92 l -12.928,-30.464 z"
         style="fill:#ff6600"
         id="path602" />
      <path
         d="m 462.55916,244.23437 q -1.024,0 -1.024,-1.024 v -43.904 q 0,-0.896 1.024,-0.896 h 30.272 q 0.96,0 0.96,0.96 v 3.20001 q 0,1.15199 -1.024,1.15199 h -25.856 v 7.68 h 20.544 q 0.448,0 0.704,0.32 0.256,0.32 0.256,0.768 v 3.2 q 0,0.448 -0.256,0.768 -0.256,0.32 -0.704,0.32 h -20.544 v 7.936 h 20.544 q 0.96,0 0.96,1.024 v 3.264 q 0,0.384 -0.256,0.768 -0.256,0.32 -0.704,0.32 h -20.544 v 8.832 h 25.664 q 0.512,0 0.832,0.32 0.32,0.256 0.32,0.768 v 3.136 q 0,1.088 -1.088,1.088 h -30.08 z"
         style="fill:#ff6600"
         id="path604" />
      <path
         d="m 508.35816,205.45037 q -0.128,0.128 -0.576,0.768 -0.384,0.64 -0.832,1.6 -0.448,0.896 -0.832,1.92 -0.32,1.024 -0.32,1.984 0,2.624 1.728,4.928 1.152,1.536 2.368,3.008 1.28,1.408 2.24,2.944 1.024,1.536 1.664,3.328 0.64,1.792 0.64,4.096 0,2.816 -1.024,5.376 -1.024,2.496 -2.816,4.48 -1.792,1.984 -4.288,3.20001 -2.496,1.21599 -5.376,1.40799 -0.512,0 -0.768,-0.32 -0.256,-0.31999 -0.256,-0.83199 v -2.81601 q 0,-0.896 1.024,-1.024 1.728,-0.192 3.264,-1.152 1.536,-0.96 2.688,-2.304 1.152,-1.408 1.856,-3.072 0.704,-1.728 0.704,-3.392 0,-1.92 -0.896,-3.52 -0.832,-1.6 -2.048,-3.008 -1.216,-1.40799 -2.496,-2.816 -1.216,-1.408 -1.984,-2.944 -1.408,-2.816 -1.408,-5.824 0,-2.752 1.024,-5.31199 1.088,-2.56 2.944,-4.54401 1.856,-1.984 4.352,-3.264 2.56,-1.28 5.504,-1.408 0.512,0 0.768,0.32 0.256,0.32 0.256,0.832 v 2.944 q 0,0.832 -1.024,0.96 -1.856,0.256 -3.392,1.216 -1.472,0.89601 -2.688,2.24 z"
         style="fill:#ff6600"
         id="path606" />
      <path
         d="m 525.86016,232.58637 q -0.384,-0.64 -0.32,-0.512 0.128,0.128 0.32,0.512 0.192,0.32 0.256,0.512 0.128,0.128 -0.256,-0.512 -2.112,-3.648 -2.88,-7.744 -0.704,-4.096 0,-8.256 1.024,-5.888 4.736,-10.56 3.776,-4.736 9.344,-7.104 2.88,-1.216 5.888,-1.6 3.008,-0.448 6.016,-0.064 3.008,0.32 5.824,1.40801 2.88,1.08799 5.376,2.87999 0.512,0.384 0.64,0.704 0.128,0.256 -0.128,0.704 l -1.6,2.624 q -0.832,1.28 -1.792,0.384 -2.24,-1.728 -4.864,-2.496 -2.624,-0.832 -5.44,-1.024 -2.816,0 -5.504,0.768 -2.624,0.768 -4.928,2.24 -2.304,1.408 -4.16,3.52 -1.792,2.048 -2.944,4.608 -1.216,2.688 -1.472,5.632 -0.192,2.944 0.448,5.76 0.64,2.752 2.112,5.248 1.536,2.496 3.84,4.416 2.304,1.92 4.992,2.944 2.752,1.024 5.696,1.088 3.008,0.064 6.08,-0.768 3.136,-0.896 6.144,-2.81599 0.512,-0.32001 0.832,-0.32001 0.32,0 0.704,0.64 0.512,0.832 0.896,1.472 0.32,0.576 0.576,1.024 0.256,0.448 0.32,0.512 0.256,0.448 0,0.768 -0.256,0.32 -0.64,0.64 -4.032,3.00801 -9.024,3.968 -4.928,0.96 -9.856,-0.128 -4.8,-1.08799 -8.832,-3.968 -3.968,-2.88 -6.4,-7.104 z"
         style="fill:#ff6600"
         id="path608" />
      <path
         d="m 590.52616,197.00237 q 4.864,0 9.152,1.856 4.288,1.856 7.488,5.12 3.264,3.20001 5.12,7.488 1.856,4.288 1.856,9.15201 0,4.86399 -1.856,9.15199 -1.856,4.288 -5.12,7.552 -3.2,3.2 -7.488,5.056 -4.288,1.856 -9.152,1.856 -4.928,0 -9.216,-1.856 -4.288,-1.856 -7.488,-5.056 -3.2,-3.264 -5.056,-7.552 -1.856,-4.288 -1.856,-9.15199 0,-4.86401 1.856,-9.15201 1.856,-4.28799 5.056,-7.488 3.2,-3.264 7.488,-5.12 4.288,-1.856 9.216,-1.856 z m 0,42.048 q 3.776,0 7.104,-1.472 3.392,-1.47199 5.888,-3.968 2.496,-2.496 3.904,-5.824 1.472,-3.392 1.472,-7.16799 0,-3.84001 -1.472,-7.16801 -1.408,-3.392 -3.904,-5.888 -2.496,-2.496 -5.888,-3.904 -3.328,-1.472 -7.104,-1.472 -3.84,0 -7.232,1.472 -3.328,1.408 -5.824,3.904 -2.496,2.496 -3.968,5.888 -1.408,3.328 -1.408,7.16801 0,3.77599 1.408,7.16799 1.472,3.328 3.968,5.824 2.496,2.49601 5.824,3.968 3.392,1.472 7.232,1.472 z"
         style="fill:#ff6600"
         id="path610" />
      <path
         d="m 620.87016,244.23437 q -0.96,0 -0.96,-0.96 v -43.904 q 0,-0.96 1.024,-0.96 h 3.264 q 0.96,0 0.96,0.96 v 39.552 h 22.464 q 0.512,0 0.704,0.384 0.256,0.32 0.256,0.704 v 3.264 q -0.128,0.896 -0.96,0.96 z"
         style="fill:#ff6600"
         id="path612" />
      <path
         d="m 676.67616,199.17838 q 5.248,12.15999 9.408,21.75999 1.728,4.096 3.392,8 1.728,3.904 3.072,6.976 1.6,3.584 2.944,6.784 0.128,0.32 0.128,0.512 0.064,0.12801 0.064,0.256 0,0.768 -1.088,0.768 h -38.72 q -1.216,0 -1.216,-0.96 0,-0.384 0.128,-0.576 l 19.072,-43.51999 q 0.384,-0.83201 1.344,-0.83201 h 0.192 q 0.64,0 0.832,0.192 0.192,0.12801 0.448,0.64001 z m -14.4,39.61599 h 25.92 l -12.928,-30.464 z"
         style="fill:#ff6600"
         id="path614" />
    </g>
  </g>
</svg>
