<?xml version="1.0" encoding="UTF-8" standalone="no"?>
<!-- Created with Inkscape (http://www.inkscape.org/) -->

<svg
   xmlns:dc="http://purl.org/dc/elements/1.1/"
   xmlns:cc="http://creativecommons.org/ns#"
   xmlns:rdf="http://www.w3.org/1999/02/22-rdf-syntax-ns#"
   xmlns:svg="http://www.w3.org/2000/svg"
   xmlns="http://www.w3.org/2000/svg"
   xmlns:sodipodi="http://sodipodi.sourceforge.net/DTD/sodipodi-0.dtd"
   xmlns:inkscape="http://www.inkscape.org/namespaces/inkscape"
   width="600px"
   height="100px"
   viewBox="0 0 600 100"
   version="1.1"
   id="SVGRoot"
   inkscape:version="0.92.1 r15371"
   sodipodi:docname="top.svg">
  <sodipodi:namedview
     id="base"
     pagecolor="#ffffff"
     bordercolor="#666666"
     borderopacity="1.0"
     inkscape:pageopacity="0.0"
     inkscape:pageshadow="2"
     inkscape:zoom="3.4133333"
     inkscape:cx="464.85955"
     inkscape:cy="50"
     inkscape:document-units="px"
     inkscape:current-layer="layer1"
     showgrid="false"
     inkscape:window-width="1366"
     inkscape:window-height="707"
     inkscape:window-x="0"
     inkscape:window-y="27"
     inkscape:window-maximized="1" />
  <defs
     id="defs557" />
  <metadata
     id="metadata560">
    <rdf:RDF>
      <cc:Work
         rdf:about="">
        <dc:format>image/svg+xml</dc:format>
        <dc:type
           rdf:resource="http://purl.org/dc/dcmitype/StillImage" />
        <dc:title></dc:title>
      </cc:Work>
    </rdf:RDF>
  </metadata>
  <g
     id="layer1"
     inkscape:groupmode="layer"
     inkscape:label="Camada 1">
    <g
       id="g52"
       transform="matrix(0.91827357,0,0,-0.91827357,198.07494,112.41308)">
      <path
         style="fill:#fdb066;stroke-width:0.26458335"
         d="m 421.42455,110.39031 c -8.14916,-4.91766 -15.88823,-9.60424 -17.19791,-10.414618 -1.30969,-0.810381 -11.58251,-7.021788 -22.82847,-13.803128 -19.49005,-11.752543 -20.50722,-12.329708 -21.72893,-12.329708 -0.70495,0 -25.07935,-2.502371 -54.16529,-5.560823 -29.08596,-3.058451 -61.39654,-6.453473 -71.80128,-7.544491 -10.40474,-1.091017 -21.12036,-2.219534 -23.8125,-2.507816 -2.69213,-0.288282 -19.65854,-2.068542 -37.70312,-3.956132 -18.04459,-1.887591 -33.64178,-3.556426 -34.66042,-3.708522 -1.01865,-0.152098 -5.18584,-0.628034 -9.26042,-1.057638 C 113.3077,47.930287 47.05529,41.027549 -8.9202525,35.214181 -15.832492,34.496307 -33.572806,32.651857 -48.343171,31.115403 -116.38837,24.037155 -130.64542,22.55549 -164.23067,19.071792 c -19.71808,-2.045297 -38.11324,-3.956102 -40.87813,-4.246235 -2.7649,-0.290132 -5.9745,-0.603544 -7.13245,-0.696471 -1.39157,-0.111675 -1.92979,-0.237627 -1.5875,-0.371499 0.28483,-0.111399 146.994511,-0.210911 326.02152,-0.221139 l 325.50366,-0.0186 v 52.91667 52.916672 l -0.7276,-0.01 c -0.47583,-0.006 -5.85468,-3.10379 -15.54428,-8.95104 z M -215.62599,13.607207 c 0.1819,-0.0734 0.47956,-0.0734 0.66146,0 0.1819,0.0734 0.0331,0.133452 -0.33073,0.133452 -0.3638,0 -0.51263,-0.06005 -0.33073,-0.133452 z"
         id="path66"
         inkscape:connector-curvature="0"
         sodipodi:nodetypes="ccssssssssssssssscccccccssc" />
      <path
         style="fill:#7cb2d7;stroke-width:0.26458335"
         d="m 421.42455,110.38451 c -8.14916,-4.92086 -22.25807,-13.448375 -31.35312,-18.950039 -9.09505,-5.501662 -19.30908,-11.670314 -22.69784,-13.708116 -3.96893,-2.386672 -6.07034,-3.796168 -5.90545,-3.961035 0.16487,-0.164868 1.22754,-0.15167 2.98638,0.03709 12.76117,1.369531 60.62076,6.530565 65.40096,7.052641 5.93714,0.648436 7.50974,0.767773 7.28974,0.553196 -0.12485,-0.121764 -4.18399,-0.594079 -14.92692,-1.736868 -4.07458,-0.43344 -11.81364,-1.265063 -17.19791,-1.848051 -5.38427,-0.582988 -11.51599,-1.238835 -13.62604,-1.457436 -2.11006,-0.218602 -9.31334,-0.989187 -16.0073,-1.712413 -6.69396,-0.723225 -12.57837,-1.350309 -13.0765,-1.393518 -0.4981,-0.04321 -0.93927,-0.197625 -0.98033,-0.343146 -0.0411,-0.145521 0.99888,-1.098021 2.31095,-2.116667 2.4411,-1.895157 5.29508,-4.136739 11.77541,-9.248696 5.69958,-4.496041 9.73185,-7.666845 20.74027,-16.309195 13.58788,-10.667409 13.22019,-10.378425 16.39855,-12.888232 1.53104,-1.209012 4.03389,-3.181268 5.56186,-4.382792 1.52797,-1.201523 5.26534,-4.141394 8.30525,-6.533046 3.03993,-2.391652 6.43321,-5.051104 7.54062,-5.909892 1.10744,-0.858789 2.0532,-1.662461 2.10169,-1.785938 0.0485,-0.123477 0.43548,-0.224504 0.8599,-0.224504 h 0.77171 v 52.91667 52.916667 l -0.7276,-0.01 c -0.47604,-0.006 -5.85037,-3.10321 -15.54428,-8.95685 z M 331.46622,71.036912 c -14.26104,-1.514067 -46.34839,-4.896694 -71.30521,-7.516945 -24.95683,-2.620254 -47.5787,-5.000414 -50.27084,-5.289243 -2.69213,-0.28883 -19.65854,-2.06954 -37.70312,-3.95713 -18.04459,-1.887591 -33.64178,-3.556426 -34.66042,-3.708522 -1.01865,-0.152098 -5.18584,-0.628034 -9.26042,-1.057638 C 113.3077,47.930287 47.05529,41.027549 -8.9202525,35.214181 -15.832492,34.496307 -33.572806,32.651857 -48.343171,31.115403 -116.38837,24.037155 -130.64542,22.55549 -164.23067,19.071792 c -19.71808,-2.045297 -38.11324,-3.956102 -40.87813,-4.246235 -2.7649,-0.290132 -5.9745,-0.603544 -7.13245,-0.696471 -1.39157,-0.111675 -1.92979,-0.237627 -1.5875,-0.371499 0.28483,-0.111399 107.15667,-0.210911 237.492976,-0.221139 l 236.975124,-0.0186 1.61745,0.914245 c 0.88961,0.502836 4.9194,2.905696 8.95511,5.33969 9.55908,5.765227 45.99626,27.701795 51.78764,31.178135 21.33658,12.807503 36.84246,22.201392 37.16451,22.515302 0.33666,0.328155 0.18066,0.374153 -1.19062,0.351084 -0.86794,-0.01461 -13.24618,-1.265331 -27.50722,-2.779396 z M -215.62599,13.607207 c 0.1819,-0.0734 0.47956,-0.0734 0.66146,0 0.1819,0.0734 0.0331,0.133452 -0.33073,0.133452 -0.3638,0 -0.51263,-0.06005 -0.33073,-0.133452 z"
         id="path64"
         inkscape:connector-curvature="0"
         sodipodi:nodetypes="csccsscssssccccscscccscccccccssssssssssssccsscccccssc" />
      <path
         style="fill:#fd8637;stroke-width:0.26458335"
         d="m 421.95372,110.10634 c -8.44021,-5.0729 -15.37398,-9.38411 -15.40838,-9.58045 -0.0374,-0.2138 1.8197,-1.435139 4.63021,-3.045017 2.58101,-1.478416 9.5517,-5.496775 15.49043,-8.929689 5.9387,-3.432913 10.85003,-6.241661 10.91406,-6.241661 0.064,0 0.11639,8.334376 0.11639,18.520837 0,10.18646 -0.0893,18.51602 -0.19844,18.51014 -0.10914,-0.006 -7.10406,-4.16125 -15.54427,-9.23416 z m 15.1915,-28.698094 c -0.12485,-0.121764 -4.18399,-0.594079 -14.92692,-1.736868 -4.07458,-0.43344 -11.81364,-1.265063 -17.19791,-1.848051 -5.38427,-0.582988 -11.51599,-1.238835 -13.62604,-1.457436 -2.11006,-0.218602 -9.31334,-0.989187 -16.0073,-1.712413 -6.69396,-0.723225 -12.57837,-1.350309 -13.0765,-1.393518 -0.4981,-0.04321 -0.93927,-0.197625 -0.98033,-0.343146 -0.0411,-0.145521 0.99888,-1.098021 2.31095,-2.116667 2.4411,-1.895157 5.29508,-4.136739 11.77541,-9.248696 5.69958,-4.496041 9.73185,-7.666845 20.74027,-16.309195 13.58788,-10.667409 13.22019,-10.378425 16.39855,-12.888232 1.53104,-1.209012 4.03389,-3.181268 5.56186,-4.382792 1.52797,-1.201523 5.26534,-4.141394 8.30525,-6.533046 3.03993,-2.391652 6.43321,-5.051104 7.54062,-5.909892 1.10744,-0.858789 2.0532,-1.662461 2.10169,-1.785938 0.0485,-0.123477 0.43548,-0.224504 0.8599,-0.224504 h 0.77171 v 33.99896 c 0,18.699429 -0.0992,33.998961 -0.22048,33.998961 -0.12128,0 -0.27011,-0.04839 -0.33073,-0.107527 z m -80.54358,-8.278765 c -0.75224,-0.09943 -22.87371,-2.422504 -159.41147,-16.740485 -31.94182,-3.34957 -58.4785,-6.158844 -58.97041,-6.242836 -0.52462,-0.08958 -0.79669,-0.250368 -0.65813,-0.388925 0.12991,-0.129915 4.10425,-1.380627 8.83185,-2.779358 13.95957,-4.130146 60.83758,-17.9893 80.95919,-23.935024 10.25922,-3.031489 21.70647,-6.414769 25.43834,-7.518399 3.73184,-1.103631 6.98114,-2.006602 7.22061,-2.006602 0.23948,0 0.75801,0.22984 1.15229,0.510757 0.65799,0.468791 17.38302,10.542506 75.72627,45.610984 11.85994,7.128677 21.73787,13.121628 21.95097,13.317665 0.33089,0.304414 0.25365,0.350645 -0.52917,0.316789 -0.50414,-0.0218 -1.27378,-0.08686 -1.71034,-0.144566 z"
         id="path62"
         inkscape:connector-curvature="0"
         sodipodi:nodetypes="scscsscscssssccccscscccscssccsccsscscsccc" />
      <path
         style="fill:#fb6607;stroke-width:0.26458335"
         d="m 421.95372,110.10634 c -8.44021,-5.0729 -15.37398,-9.38411 -15.40838,-9.58045 -0.0374,-0.2138 1.8197,-1.435139 4.63021,-3.045017 2.58101,-1.478416 9.5517,-5.496775 15.49043,-8.929689 5.9387,-3.432913 10.85003,-6.241661 10.91406,-6.241661 0.064,0 0.11639,8.334376 0.11639,18.520837 0,10.18646 -0.0893,18.51602 -0.19844,18.51014 -0.10914,-0.006 -7.10406,-4.16125 -15.54427,-9.23416 z M 356.60164,73.129481 c -0.75224,-0.09943 -22.87371,-2.422504 -159.41147,-16.740485 -31.94182,-3.34957 -58.4785,-6.158844 -58.97041,-6.242836 -0.52462,-0.08958 -0.79669,-0.250368 -0.65813,-0.388925 0.12991,-0.129915 4.10425,-1.380627 8.83185,-2.779358 13.95957,-4.130146 60.83758,-17.9893 80.95919,-23.935024 10.25922,-3.031489 21.70647,-6.414769 25.43834,-7.518399 3.73184,-1.103631 6.98114,-2.006602 7.22061,-2.006602 0.23948,0 0.75801,0.22984 1.15229,0.510757 0.65799,0.468791 17.38302,10.542506 75.72627,45.610984 11.85994,7.128677 21.73787,13.121628 21.95097,13.317665 0.33089,0.304414 0.25365,0.350645 -0.52917,0.316789 -0.50414,-0.0218 -1.27378,-0.08686 -1.71034,-0.144566 z"
         id="path60"
         inkscape:connector-curvature="0"
         sodipodi:nodetypes="scscsscscsccsscscsccc" />
      <path
         style="fill:#0369b2;stroke-width:0.26458335"
         d="m 421.95372,110.10634 c -8.44021,-5.0729 -15.37398,-9.38411 -15.40838,-9.58045 -0.0374,-0.2138 1.8197,-1.435139 4.63021,-3.045017 2.58101,-1.478416 9.5517,-5.496775 15.49043,-8.929689 5.9387,-3.432913 10.85003,-6.241661 10.91406,-6.241661 0.064,0 0.11639,8.334376 0.11639,18.520837 0,10.18646 -0.0893,18.51602 -0.19844,18.51014 -0.10914,-0.006 -7.10406,-4.16125 -15.54427,-9.23416 z M 356.60164,73.129481 c -0.75224,-0.09943 -22.87371,-2.422504 -159.41147,-16.740485 -31.94182,-3.34957 -58.4785,-6.158844 -58.97041,-6.242836 -0.52462,-0.08958 -0.79669,-0.250368 -0.65813,-0.388925 0.12991,-0.129915 4.10425,-1.380627 8.83185,-2.779358 13.95957,-4.130146 60.83758,-17.9893 80.95919,-23.935024 10.25922,-3.031489 21.70647,-6.414769 25.43834,-7.518399 3.73184,-1.103631 6.98114,-2.006602 7.22061,-2.006602 0.23948,0 0.75801,0.22984 1.15229,0.510757 0.65799,0.468791 17.38302,10.542506 75.72627,45.610984 11.85994,7.128677 21.73787,13.121628 21.95097,13.317665 0.33089,0.304414 0.25365,0.350645 -0.52917,0.316789 -0.50414,-0.0218 -1.27378,-0.08686 -1.71034,-0.144566 z"
         id="path58"
         inkscape:connector-curvature="0"
         sodipodi:nodetypes="scscsscscsccsscscsccc" />
    </g>
  </g>
</svg>
